<svg fill="none" xmlns="http://www.w3.org/2000/svg" viewBox="0 0 147 142"><path fill="#1E1E1E" d="M0 0H147V142H0z"/><g filter="url(#a)"><rect x="1" y="1" width="144" height="140" rx="24" fill="#fff" fill-opacity=".1"/><path d="m61 70.2.1-.3c.2-.4.6-.7 1-.8h16.3l-.2-.2-4.8-4.8c-.5-.5-.7-1.1-.3-1.6.4-.5.8-1 1.3-1.3.4-.3 1-.2 1.5.1l.2.2 8.4 8.5c.6.5.7 1.1.3 1.7l-.3.3-8.4 8.5c-.7.7-1.4.7-2 0l-.7-.6c-.6-.6-.6-1.4 0-2l4.8-4.8.2-.2H62.7c-1 0-1.3-.2-1.7-1.1v-1.6Z" fill="#00F5AB"/><rect x=".5" y=".5" width="145" height="141" rx="24.5" stroke="url(#b)"/></g><defs><linearGradient id="b" x1="73" y1="1" x2="73" y2="141" gradientUnits="userSpaceOnUse"><stop stop-color="#A4A4A4"/><stop offset="1" stop-color="#959595" stop-opacity=".2"/></linearGradient><filter id="a" x="-16" y="-16" width="178" height="174" filterUnits="userSpaceOnUse" color-interpolation-filters="sRGB"><feFlood flood-opacity="0" result="BackgroundImageFix"/><feGaussianBlur in="BackgroundImageFix" stdDeviation="8"/><feComposite in2="SourceAlpha" operator="in" result="effect1_backgroundBlur_0_1"/><feBlend in="SourceGraphic" in2="effect1_backgroundBlur_0_1" result="shape"/></filter></defs></svg>